<svg height="512pt" viewBox="0 -40 512.00232 512" width="512pt" xmlns="http://www.w3.org/2000/svg"><path d="m507.527344 131.597656-129.144532-127.28125c-5.871093-5.785156-15.308593-5.75-21.136718.078125l-50.03125 50.234375c-14.863282 0-87.585938 0-102.425782 0l-50.035156-50.234375c-5.828125-5.828125-15.265625-5.863281-21.136718-.078125l-129.144532 127.28125c-2.878906 2.835938-4.4921872 6.714844-4.472656 10.753906.0195312 4.042969 1.667969 7.902344 4.574219 10.710938l51.722656 50.003906v6.367188c0 18.171875 5.574219 35.472656 15.875 50-14.15625 17.613281-13.15625 43.484375 3.304687 59.945312 7.910157 7.910156 18.25 12.515625 29.335938 13.113282.589844 10.675781 4.953125 21.175781 13.089844 29.3125 8.140625 8.144531 18.65625 12.5 29.339844 13.085937.585937 10.683594 4.941406 21.195313 13.085937 29.339844 15.988281 15.988281 41.222656 17.476562 58.9375 4.082031l10.964844 10.964844c8.816406 8.820312 20.398437 13.226562 31.984375 13.226562 11.582031 0 23.167968-4.410156 31.984375-13.226562 4.074219-4.074219 7.191406-8.761719 9.375-13.777344 17.292969 9.851562 39.539062 7.289062 54.101562-7.269531 8.140625-8.144531 12.5-18.65625 13.082031-29.34375 10.683594-.582031 21.199219-4.941407 29.34375-13.082031 7.910157-7.914063 12.507813-18.257813 13.109376-29.34375 10.675781-.589844 21.179687-4.945313 29.316406-13.082032 8.5-8.5 13.179687-19.800781 13.179687-31.820312 0-10.492188-3.566406-20.433594-10.125-28.441406 6.585938-10.449219 10.125-22.546876 10.125-35.199219v-14.851563l51.722657-50.003906c2.902343-2.808594 4.554687-6.667969 4.574218-10.710938.015625-4.039062-1.597656-7.917968-4.476562-10.753906zm-471.054688 10.578125 107.597656-106.039062 43.898438 43.898437c2.8125 2.8125 6.625 4.390625 10.605469 4.390625h45.777343l74.796876 74.796875c5.859374 5.859375 5.863281 15.347656 0 21.207032-5.847657 5.847656-15.363282 5.847656-21.210938 0l-29.921875-29.917969c-23.769531-23.769531-62.441406-24.324219-86.8125-.476563l-31.621094-31.621094c-5.855469-5.859374-15.355469-5.859374-21.210937 0-5.859375 5.859376-5.859375 15.355469 0 21.214844l31.605468 31.605469-66.261718 66.261719c-4.832032-8.457032-7.421875-18.058594-7.421875-28.0625 0-12.714844 1.042969-18.082032-4.574219-23.511719zm236.511719 255.890625c-5.9375 5.9375-15.601563 5.9375-21.542969 0l-10.652344-10.65625 21.710938-21.710937c11.164062 11.519531 3.71875 4.714843 12.753906 13.75 3.5 5.855469 2.742188 13.605469-2.269531 18.617187zm63.476563-21.046875c-5.851563 5.847657-15.367188 5.847657-21.214844 0-26.789063-26.789062 2.703125 2.785157-23.609375-24.363281-3.292969-5.714844-2.53125-13.136719 2.394531-18.0625 5.847656-5.847656 15.367188-5.851562 21.214844 0l21.214844 21.210938c5.847656 5.847656 5.847656 15.367187 0 21.214843zm42.425781-42.425781c-5.847657 5.847656-15.367188 5.847656-21.214844 0l-42.425781-42.429688c-5.863282-5.863281-5.863282-15.347656 0-21.210937 5.847656-5.847656 15.363281-5.847656 21.214844 0l42.425781 42.425781c5.863281 5.863282 5.863281 15.351563 0 21.214844zm42.425781-42.429688c-5.847656 5.847657-15.363281 5.851563-21.214844 0l-21.210937-21.210937c-5.863281-5.863281-5.863281-15.351563 0-21.214844 5.847656-5.847656 15.363281-5.847656 21.214843 0 5.148438 5.148438 15.882813 15.886719 21.210938 21.214844 5.847656 5.847656 5.847656 15.363281 0 21.210937zm8.96875-106.242187c-2.925781 2.828125-4.574219 6.71875-4.574219 10.785156v21.210938c0 4.410156-.792969 8.699219-2.292969 12.710937l-2.101562-2.101562c-17.542969-17.546875-46.09375-17.546875-63.640625 0-4.082031 4.082031-7.273437 8.816406-9.5 13.964844-17.179687-9.808594-39.492187-7.398438-54.140625 7.246093-14.796875 14.796875-17.035156 37.117188-7.246094 54.167969-6.527344 2.8125-13.054687 8.136719-14.179687 9.257812-10.863281 10.863282-59.46875 59.46875-69.851563 69.855469-5.851562 5.847657-15.367187 5.847657-21.214844 0-5.847656-5.851562-5.847656-15.363281 0-21.214843 3.738282-3.738282 37.105469-37.101563 42.425782-42.425782 5.859375-5.859375 5.859375-15.355468 0-21.214844-5.855469-5.859374-15.355469-5.859374-21.210938 0-5.332031 5.332032-38.070312 38.070313-42.425781 42.425782-5.847656 5.851562-15.363281 5.851562-21.214844 0-5.847656-5.847656-5.847656-15.363282 0-21.210938l42.429688-42.429687c5.855469-5.855469 5.855469-15.355469 0-21.210938-5.859375-5.859375-15.359375-5.859375-21.214844 0l-42.425781 42.425781c-5.863282 5.863282-15.351563 5.863282-21.214844 0-5.863281-5.863281-5.863281-15.347656 0-21.210937 12.488281-12.488281 92.789062-92.789063 105.230469-105.230469 12.402343-12.402344 32.480469-12.40625 44.886719 0l29.921874 29.921875c17.5625 17.558594 46.105469 17.527344 63.636719 0 8.496094-8.5 13.179688-19.796875 13.179688-31.816406s-4.683594-23.320313-13.179688-31.820313l-53.585937-53.582031h26.652344c3.976562 0 7.792968-1.582031 10.605468-4.394531l43.894532-43.894531 107.597656 106.039062zm0 0"/></svg>